<svg xmlns="http://www.w3.org/2000/svg" width="760" height="420" viewBox="0 0 760 420">
<rect width="100%" height="100%" fill="#f8fafc"/>
<text x="36" y="42" font-family="Arial" font-size="22" font-weight="700" fill="#0f172a">Age-standardized surveillance rates</text>
<text x="36" y="67" font-family="Arial" font-size="13" fill="#475569">Synthetic cases per 100,000 person-weeks; bars show approximate 95% CIs</text>
<line x1="95" y1="345" x2="700" y2="345" stroke="#94a3b8"/>
<line x1="95" y1="345.0" x2="700" y2="345.0" stroke="#e2e8f0"/>
<text x="82" y="349.0" text-anchor="end" font-family="Arial" font-size="11" fill="#64748b">0</text>
<line x1="95" y1="289.5" x2="700" y2="289.5" stroke="#e2e8f0"/>
<text x="82" y="293.5" text-anchor="end" font-family="Arial" font-size="11" fill="#64748b">50</text>
<line x1="95" y1="234.0" x2="700" y2="234.0" stroke="#e2e8f0"/>
<text x="82" y="238.0" text-anchor="end" font-family="Arial" font-size="11" fill="#64748b">100</text>
<line x1="95" y1="178.4" x2="700" y2="178.4" stroke="#e2e8f0"/>
<text x="82" y="182.4" text-anchor="end" font-family="Arial" font-size="11" fill="#64748b">150</text>
<line x1="95" y1="122.9" x2="700" y2="122.9" stroke="#e2e8f0"/>
<text x="82" y="126.9" text-anchor="end" font-family="Arial" font-size="11" fill="#64748b">200</text>
<rect x="133" y="202.0" width="92" height="143.0" rx="5" fill="#0f766e"/>
<line x1="179.0" y1="175.1" x2="179.0" y2="228.9" stroke="#0f172a" stroke-width="2"/>
<line x1="163" y1="175.1" x2="195" y2="175.1" stroke="#0f172a" stroke-width="2"/>
<line x1="163" y1="228.9" x2="195" y2="228.9" stroke="#0f172a" stroke-width="2"/>
<text x="179.0" y="193.0" text-anchor="middle" font-family="Arial" font-size="12" font-weight="700" fill="#0f172a">128.8</text>
<text x="179.0" y="371" text-anchor="middle" font-family="Arial" font-size="12" fill="#334155">North</text>
<rect x="280" y="225.3" width="92" height="119.7" rx="5" fill="#2563eb"/>
<line x1="326.0" y1="203.1" x2="326.0" y2="247.6" stroke="#0f172a" stroke-width="2"/>
<line x1="310" y1="203.1" x2="342" y2="203.1" stroke="#0f172a" stroke-width="2"/>
<line x1="310" y1="247.6" x2="342" y2="247.6" stroke="#0f172a" stroke-width="2"/>
<text x="326.0" y="216.3" text-anchor="middle" font-family="Arial" font-size="12" font-weight="700" fill="#0f172a">107.8</text>
<text x="326.0" y="371" text-anchor="middle" font-family="Arial" font-size="12" fill="#334155">Central</text>
<rect x="427" y="138.7" width="92" height="206.3" rx="5" fill="#dc2626"/>
<line x1="473.0" y1="104.1" x2="473.0" y2="173.3" stroke="#0f172a" stroke-width="2"/>
<line x1="457" y1="104.1" x2="489" y2="104.1" stroke="#0f172a" stroke-width="2"/>
<line x1="457" y1="173.3" x2="489" y2="173.3" stroke="#0f172a" stroke-width="2"/>
<text x="473.0" y="129.7" text-anchor="middle" font-family="Arial" font-size="12" font-weight="700" fill="#0f172a">185.8</text>
<text x="473.0" y="371" text-anchor="middle" font-family="Arial" font-size="12" fill="#334155">South</text>
<rect x="574" y="197.1" width="92" height="147.9" rx="5" fill="#7c3aed"/>
<line x1="620.0" y1="166.1" x2="620.0" y2="228.2" stroke="#0f172a" stroke-width="2"/>
<line x1="604" y1="166.1" x2="636" y2="166.1" stroke="#0f172a" stroke-width="2"/>
<line x1="604" y1="228.2" x2="636" y2="228.2" stroke="#0f172a" stroke-width="2"/>
<text x="620.0" y="188.1" text-anchor="middle" font-family="Arial" font-size="12" font-weight="700" fill="#0f172a">133.2</text>
<text x="620.0" y="371" text-anchor="middle" font-family="Arial" font-size="12" fill="#334155">Harbor</text>
</svg>